<svg xmlns="http://www.w3.org/2000/svg" width="32" height="32" viewBox="0 0 32 32"><path fill="#000" d="M 16.03125 0 C 7.2006987 0 2.3129646e-018 7.1695003 0 16 C 0 24.8306 7.2006987 32 16.03125 32 C 24.861791 32 32 24.8306 32 16 C 32 7.1695003 24.861791 0 16.03125 0 z M 16.03125 1 C 24.313394 1 30.96875 7.7179003 30.96875 16 C 30.96875 24.2822 24.313395 31 16.03125 31 C 7.7490954 31 1.03125 24.2822 1.03125 16 C 1.03125 7.7179003 7.7490954 1 16.03125 1 z M 18.5 8 A 0.50004986 0.50004986 0 0 0 18 8.53125 L 18 10 L 16.5 10 C 16.22434 10 16.00003 10.2244 16 10.5 L 16 12.3125 C 16.4183 12.3015 17 12.6875 17 12.6875 L 17 11 L 18.40625 11 A 0.50004986 0.50004986 0 0 0 18.625 11 L 22.375 11 A 0.50004986 0.50004986 0 0 0 22.625 11 L 24 11 L 24 16 L 20.3125 16 C 20.59374 16.2868 20.60626 16.6579 20.6875 17 L 24.5 17 C 24.77566 17 24.99998 16.7757 25 16.5 L 25 10.5 C 24.99998 10.2244 24.77566 10 24.5 10 L 23 10 L 23 8.53125 A 0.50004986 0.50004986 0 0 0 22.5 8 A 0.50004986 0.50004986 0 0 0 22 8.53125 L 22 10 L 19 10 L 19 8.53125 A 0.50004986 0.50004986 0 0 0 18.5 8 z M 18 12 L 18 13 L 19 13 L 19 12 L 18 12 z M 20 12 L 20 13 L 21 13 L 21 12 L 20 12 z M 22 12 L 22 13 L 23 13 L 23 12 L 22 12 z M 14.5 13 C 11.47159 13 9.00006 15.4716 9 18.5 C 9 21.5284 11.47154 24 14.5 24 C 17.52845 24 20 21.5284 20 18.5 C 19.99994 15.4716 17.52841 13 14.5 13 z M 14.5 14 C 16.9889 14 18.99996 16.0111 19 18.5 C 19.00001 20.989 16.98894 23 14.5 23 C 12.01106 23 9.99999 20.989 10 18.5 C 10.00004 16.0111 12.0111 14 14.5 14 z M 20 14 L 20 15 L 21 15 L 21 14 L 20 14 z M 22 14 L 22 15 L 23 15 L 23 14 L 22 14 z M 14.4375 14.65625 A 0.50004986 0.50004986 0 0 0 14 15.1875 L 14 18.5 A 0.50004986 0.50004986 0 0 0 14.5 19 L 17.5 19 A 0.50004986 0.50004986 0 1 0 17.5 18 L 15 18 L 15 15.1875 A 0.50004986 0.50004986 0 0 0 14.5 14.65625 A 0.50004986 0.50004986 0 0 0 14.4375 14.65625 z " color="#000" font-family="Sans" font-weight="400" overflow="visible" style="text-indent:0;text-align:start;line-height:normal;text-transform:none;block-progression:tb;marker:none;-inkscape-font-specification:Sans"/></svg>