<svg xmlns="http://www.w3.org/2000/svg" width="24" height="24" viewBox="0 0 6.35 6.35"><path fill="#00001d" style="line-height:normal;font-variant-ligatures:normal;font-variant-position:normal;font-variant-caps:normal;font-variant-numeric:normal;font-variant-alternates:normal;font-feature-settings:normal;text-indent:0;text-align:start;text-decoration-line:none;text-decoration-style:solid;text-decoration-color:#000;text-transform:none;text-orientation:mixed;shape-padding:0;isolation:auto;mix-blend-mode:normal" d="M 2.9101563,0.26367184 C 1.4665111,0.26366108 0.26365948,1.3288635 0.26367188,2.6699218 0.26365939,4.0109802 1.4665111,5.0742295 2.9101563,5.0742187 3.2727601,5.0739276 3.6208895,4.9730605 3.953125,4.8417968 L 4.8828126,5.4472655 A 0.26460981,0.26460981 0 0 0 5.2773439,5.1367188 L 4.9160157,4.1191406 C 5.2781792,3.7004851 5.555581,3.2121355 5.5566407,2.6699218 5.5566531,1.3288635 4.3538015,0.26366105 2.9101563,0.26367184 Z m 0,0.52929688 c 1.18662,-8.87e-6 2.1171971,0.85410498 2.1171876,1.87695308 -0.00143,0.469817 -0.2008206,0.9239299 -0.5683594,1.2734376 a 0.26460981,0.26460981 0 0 0 -0.066406,0.2812499 l 0.125,0.3554688 L 4.1542969,4.3437499 A 0.26460981,0.26460981 0 0 0 3.8984375,4.326171 C 3.5948138,4.4687687 3.255233,4.5446427 2.9101563,4.5449218 1.7235362,4.5449306 0.79295923,3.6927699 0.79296876,2.6699218 0.79295929,1.6470737 1.7235362,0.79295988 2.9101563,0.79296872 Z" color="#000" font-family="sans-serif" font-weight="400" overflow="visible" paint-order="markers fill stroke" white-space="normal"/></svg>