<?xml version="1.0" encoding="UTF-8" standalone="no"?><svg xmlns="http://www.w3.org/2000/svg" xmlns:xlink="http://www.w3.org/1999/xlink" width="21px" height="20px" viewBox="0 0 21 20" version="1.1"><title>url [#1424]</title><g id="Page-1" stroke="none" stroke-width="1" fill="none" fill-rule="evenodd"><g id="Dribbble-Light-Preview" transform="translate(-299.000000, -600.000000)" fill="#000"><g id="icons" transform="translate(56.000000, 160.000000)"><path d="M246.4 448.949c-1.88-1.79-1.645-4.842.702-6.318 1.708-1.073 4.002-.75 5.449.627l.671.639a1.11 1.11 0 0 0 1.516 0 .985.985 0 0 0 0-1.443l-.567-.54c-2.49-2.371-6.581-2.612-9.145-.314-2.653 2.38-2.7 6.357-.142 8.792l.758.721a1.11 1.11 0 0 0 1.516 0 .985.985 0 0 0 0-1.443l-.758-.721zm15.577.397l-.547-.52a1.11 1.11 0 0 0-1.516 0 .985.985 0 0 0 0 1.442l.671.64c1.448 1.377 1.785 3.561.659 5.187-1.55 2.235-4.757 2.457-6.636.668l-.758-.721a1.11 1.11 0 0 0-1.515 0 .985.985 0 0 0 0 1.443l.757.721c2.552 2.43 6.714 2.392 9.214-.115 2.437-2.442 2.173-6.363-.33-8.745zm-4.337 5.974l-9.724-9.258a.988.988 0 0 1 0-1.444 1.111 1.111 0 0 1 1.516 0l9.724 9.258a.988.988 0 0 1 0 1.444 1.113 1.113 0 0 1-1.516 0z" id="url-[#1424]"/></g></g></g><metadata><rdf:RDF xmlns:rdf="http://www.w3.org/1999/02/22-rdf-syntax-ns#" xmlns:rdfs="http://www.w3.org/2000/01/rdf-schema#" xmlns:dc="http://purl.org/dc/elements/1.1/"><rdf:Description about="https://iconscout.com/legal#licenses" dc:title="url" dc:description="url" dc:publisher="Iconscout" dc:date="2017-09-15" dc:format="image/svg+xml" dc:language="en"><dc:creator><rdf:Bag><rdf:li>Alexandru Stoica</rdf:li></rdf:Bag></dc:creator></rdf:Description></rdf:RDF></metadata></svg>